<svg xmlns="http://www.w3.org/2000/svg" viewBox="0 0 91 25" fill="#533738"><g><path d="M38.9 9.1c.4-.4.9-.8 1.5-1 .6-.2 1.2-.4 1.9-.4.6 0 1.2.1 1.8.3.6.2 1.1.5 1.5 1l.8-.8c-.5-.5-1.1-.9-1.8-1.2-.7-.3-1.5-.4-2.3-.4a5.87 5.87 0 0 0-4.2 1.6c-.5.5-.9 1.1-1.2 1.8-.3.7-.4 1.5-.4 2.3 0 .8.1 1.6.4 2.3a5.16 5.16 0 0 0 3.1 3c.7.3 1.5.4 2.3.4.8 0 1.6-.1 2.3-.4.7-.3 1.3-.7 1.8-1.2l-.8-.8c-.5.5-1 .8-1.5 1a5.66 5.66 0 0 1-3.7 0c-.6-.2-1.1-.6-1.5-1-.4-.4-.8-.9-1-1.5-.2-.6-.4-1.2-.4-1.9s.1-1.3.4-1.8c.2-.4.5-.9 1-1.3z"/><path d="M33.4 12.8c-.4-.2-.9-.4-1.3-.5-.5-.1-1-.3-1.5-.4-.5-.1-.9-.3-1.4-.4-.4-.1-.7-.4-1-.6-.2-.3-.4-.6-.4-1.1 0-.4.1-.7.3-1 .2-.3.5-.6 1-.7.4-.2 1-.3 1.7-.3.5 0 1 .1 1.6.2.5.1 1.1.4 1.5.7l.4-.9c-.4-.3-1-.5-1.6-.7-.6-.2-1.2-.3-1.9-.3-.9 0-1.7.1-2.3.4-.6.3-1.1.7-1.4 1.1-.3.5-.4 1-.4 1.5 0 .6.1 1.1.4 1.5.3.4.6.7 1 .9.4.2.9.4 1.4.5.5.1 1 .3 1.5.4.5.1.9.3 1.3.4.4.1.7.4 1 .6.3.3.4.6.4 1.1 0 .4-.1.7-.3 1-.2.3-.5.5-1 .7-.4.2-1 .3-1.7.3s-1.4-.1-2.1-.4c-.7-.3-1.2-.6-1.6-1l-.5.9c.4.4 1 .8 1.8 1.1.8.3 1.6.4 2.4.4 1 0 1.7-.1 2.4-.4.6-.3 1.1-.7 1.4-1.1.3-.5.4-1 .4-1.5 0-.6-.1-1.1-.4-1.4-.4-.5-.7-.8-1.1-1z"/><rect x="86.2" y="6.8" width="1.2" height="11.2"/><path d="M51.9 6.8 46.7 18H48l1.3-3h6.3l1.3 3h1.2L53 6.8h-1.1zM49.7 14l2.7-6 2.7 6h-5.4z"/><path d="M80.7 7.5c-.9-.5-1.9-.7-3.1-.7H73V18h4.6c1.2 0 2.2-.2 3.1-.7.9-.5 1.6-1.1 2.1-2a5.74 5.74 0 0 0 0-5.8c-.5-.9-1.2-1.5-2.1-2zm1.1 7.3c-.4.7-1 1.2-1.7 1.6-.7.4-1.6.6-2.6.6h-3.3V7.8h3.3c1 0 1.9.2 2.6.6.7.4 1.3.9 1.7 1.6.4.7.6 1.5.6 2.4 0 .9-.2 1.7-.6 2.4z"/><polygon points="68.2 15.9 61 6.8 60 6.8 60 18 61.2 18 61.2 8.9 68.4 18 69.4 18 69.4 6.8 68.2 6.8"/></g><path d="M18 1.6c-.9-.5-11.2-.7-12.3 0-.1 0-.1.1-.1.2v.3c.1 5.9.2 7.4.2 7.6 0 .3.1.3 2.1.4h4v.5h-1.6s-.1 0-.2.1c0 .1-.1.1 0 .2l1.9 5.9v.1l-1.8 5.9v.2c0 .1.1.1.2.1l3.6-.5c.1 0 .1-.1.2-.1v-.2l-1.8-5.5 1.8-5.8v-.2c0-.1-.1-.1-.2-.1h-1.6v-.6c5.8 0 5.8-.1 5.8-.4V1.8l-.2-.2zm-5.6 16.8 1.2 3.8-1.2.2v-4zm0-3.1v-4.1h1.2l-1.2 4.1zm-.5-.1-1.3-4h1.3v4zM6.1 2c1.5-.5 10.4-.4 11.6 0v7.6c-1.3.2-10.1.2-11.4 0 0-1.2-.2-6.4-.2-7.6zm5.8 16.7v3.8l-1.2.2 1.2-4z"/></svg>